<svg width="95" height="95" fill="none" xmlns="http://www.w3.org/2000/svg"><path d="M47.5 62.931c11.578 0 20.998-9.42 20.998-20.997 0-11.579-9.42-20.998-20.998-20.998-11.578 0-20.998 9.42-20.998 20.998 0 11.578 9.42 20.997 20.998 20.997zm6.693-4.057c1.646-2.27 2.935-5.377 3.704-9.013h6a18.325 18.325 0 01-9.704 9.013zm11.521-16.94c0 1.785-.26 3.511-.74 5.143h-6.605c.212-1.64.326-3.363.326-5.143 0-1.781-.114-3.503-.326-5.144h6.605c.48 1.632.74 3.358.74 5.144zm-1.817-7.927h-6c-.77-3.637-2.058-6.743-3.704-9.014a18.322 18.322 0 019.704 9.014zM48.892 23.999c2.512 1 4.933 4.63 6.169 10.008h-6.17V23.999zm0 12.79h6.676c.221 1.604.343 3.324.343 5.145 0 1.82-.122 3.54-.343 5.143h-6.676V36.79zm0 13.072h6.169c-1.236 5.378-3.657 9.007-6.17 10.007V49.86zm-2.784 10.007c-2.512-1-4.933-4.63-6.169-10.008h6.17v10.008zm0-12.79h-6.676a37.697 37.697 0 01-.343-5.144c0-1.82.122-3.54.343-5.144h6.676v10.287zm0-23.079v10.008H39.94c1.236-5.379 3.657-9.008 6.17-10.008zm-5.3.994c-1.647 2.27-2.936 5.377-3.705 9.014h-6a18.322 18.322 0 019.704-9.014zm-11.523 16.94c0-1.785.26-3.511.741-5.143h6.605a40.095 40.095 0 00-.326 5.144c0 1.78.113 3.502.326 5.143h-6.605a18.163 18.163 0 01-.74-5.143zm7.818 7.928c.77 3.636 2.058 6.742 3.704 9.013a18.322 18.322 0 01-9.704-9.014h6z" fill="url(#paint0_linear)"/><path d="M88.042 5.566H6.958A6.966 6.966 0 000 12.524v58.819A6.966 6.966 0 006.958 78.3h29.41a1.392 1.392 0 000-2.783H6.957a4.18 4.18 0 01-4.175-4.175V12.524A4.18 4.18 0 016.958 8.35h81.084a4.18 4.18 0 014.175 4.174v58.819a4.18 4.18 0 01-4.175 4.175H41.934c-.769 0-1.392.623-1.392 1.391v4.175H25.234a6.966 6.966 0 00-6.958 6.958c0 .769.623 1.392 1.392 1.392h55.664c.769 0 1.392-.623 1.392-1.392a6.966 6.966 0 00-6.958-6.958H54.458v-2.783h33.584A6.966 6.966 0 0095 71.343V12.524a6.966 6.966 0 00-6.958-6.958zM43.325 78.301h8.35v2.783h-8.35v-2.783zm26.44 5.566a4.182 4.182 0 013.937 2.783H21.298a4.182 4.182 0 013.936-2.783h44.532z" fill="url(#paint1_linear)"/><path d="M89.434 71.343V12.524c0-.768-.623-1.391-1.392-1.391H6.958c-.769 0-1.392.623-1.392 1.391v58.819c0 .768.623 1.391 1.392 1.391h81.084c.769 0 1.392-.623 1.392-1.391zM86.65 69.95H8.35V13.916h78.3v56.035z" fill="url(#paint2_linear)"/><defs><linearGradient id="paint0_linear" x1="25.881" y1="20.936" x2="74.151" y2="24.364" gradientUnits="userSpaceOnUse"><stop stop-color="#006401"/><stop offset="1" stop-color="#8BC800"/></linearGradient><linearGradient id="paint1_linear" x1="-1.406" y1="5.566" x2="107.634" y2="14.338" gradientUnits="userSpaceOnUse"><stop stop-color="#006401"/><stop offset="1" stop-color="#8BC800"/></linearGradient><linearGradient id="paint2_linear" x1="4.325" y1="11.133" x2="100.313" y2="20.413" gradientUnits="userSpaceOnUse"><stop stop-color="#006401"/><stop offset="1" stop-color="#8BC800"/></linearGradient></defs></svg>